# xmcd
# 
# Track frame offsets:
#     150
#     16872
#     34524
#     52628
#     70056
#     90731
#     110844
# 
# Disc length: 1721
# 
# Revision: 0
# Processed by: cddbd v1.5.2PL0 Copyright (c) Steve Scherf et al.
# Submitted via: fre:ac v1.0.17
# 
DISCID=4b06b707
DTITLE=The Servants - Vol Vertrouwen
DYEAR=2012
DGENRE=Christian GospelRock
TTITLE0=Kom In Mijn Hart
TTITLE1=Prijs De Heer
TTITLE2=Vervul Mij
TTITLE3=In Deze Stilte
TTITLE4=De Weg
TTITLE5=Vol Vertrouwen
TTITLE6=Het Leven
EXTD=
EXTT0=
EXTT1=
EXTT2=
EXTT3=
EXTT4=
EXTT5=
EXTT6=
PLAYORDER=
